<svg width="371" height="47" viewBox="0 0 371 47" fill="none" xmlns="http://www.w3.org/2000/svg">
<path d="M22.2206 36.5233C25.4693 36.5233 28.4297 35.3954 30.6718 33.3604L32.2369 31.9518L39.2877 38.9533L37.6093 40.536C33.5755 44.3201 28.095 46.4096 22.2181 46.4096C9.57097 46.4096 0 36.6974 0 23.8692C0 10.9863 9.34701 1.60938 22.2181 1.60938C27.9869 1.60938 33.4108 3.6989 37.4961 7.42315L39.2337 9.0059L32.291 16.0126L30.7284 14.656C28.4297 12.621 25.4127 11.5477 22.2206 11.5477C14.8918 11.5477 9.80006 16.6338 9.80006 23.9237C9.80006 31.2137 15.0592 36.5233 22.2206 36.5233Z" fill="black"/>
<path d="M21.8821 16.5234C23.8565 16.5234 25.7501 17.3153 27.1463 18.7248C28.5424 20.1343 29.3267 22.0461 29.3267 24.0395C29.3267 26.0328 28.5424 27.9446 27.1463 29.3541C25.7501 30.7637 23.8565 31.5555 21.8821 31.5555C19.9077 31.5555 18.0141 30.7637 16.6179 29.3541C15.2218 27.9446 14.4375 26.0328 14.4375 24.0395C14.4375 22.0461 15.2218 20.1343 16.6179 18.7248C18.0141 17.3153 19.9077 16.5234 21.8821 16.5234Z" fill="#FF3D2E"/>
<path d="M53.1658 38.8042L51.3906 38.3751L52.0721 32.1912H58.8113V34.0338H53.9146L53.5949 36.8945C53.7688 36.7879 54.0212 36.6812 54.3521 36.5747C54.6887 36.4625 55.0673 36.4064 55.4879 36.4064C56.0713 36.4064 56.5929 36.5017 57.0528 36.6924C57.5128 36.8775 57.9026 37.1468 58.2223 37.5001C58.5476 37.8535 58.7916 38.2854 58.9543 38.7958C59.1226 39.3006 59.2067 39.8727 59.2067 40.5122C59.2067 41.0731 59.1226 41.6003 58.9543 42.0939C58.7916 42.5819 58.542 43.0166 58.2055 43.398C57.8689 43.7738 57.4455 44.0711 56.9351 44.2898C56.4246 44.5029 55.8245 44.6096 55.1346 44.6096C54.6129 44.6096 54.1109 44.5338 53.6286 44.3825C53.1518 44.2254 52.7227 43.9982 52.3413 43.701C51.9599 43.3981 51.6542 43.0279 51.4242 42.5904C51.1999 42.1529 51.0765 41.6509 51.054 41.0844H53.25C53.2892 41.4602 53.3902 41.7798 53.5528 42.0434C53.7155 42.307 53.9286 42.5091 54.1923 42.6493C54.4615 42.7894 54.7728 42.8596 55.1262 42.8596C55.4459 42.8596 55.7207 42.8006 55.9507 42.6828C56.1863 42.5595 56.3798 42.3885 56.5312 42.1697C56.6826 41.951 56.7948 41.6929 56.8677 41.3956C56.9407 41.0983 56.9771 40.7731 56.9771 40.4197C56.9771 40.0776 56.9351 39.7662 56.8509 39.4857C56.7668 39.1997 56.6378 38.953 56.4639 38.7453C56.29 38.5378 56.0713 38.378 55.8076 38.2659C55.5496 38.1537 55.2467 38.0975 54.899 38.0975C54.4334 38.0975 54.0745 38.1676 53.8221 38.3078C53.5753 38.4481 53.3565 38.6135 53.1658 38.8042ZM70.2496 42.6912V44.4412H61.954V42.9437L65.9335 38.6445C66.3486 38.1733 66.6767 37.7638 66.9179 37.416C67.1591 37.0683 67.3302 36.7542 67.4311 36.4738C67.5377 36.1877 67.591 35.9156 67.591 35.6576C67.591 35.2818 67.5237 34.9537 67.3891 34.6732C67.2544 34.3872 67.0581 34.1656 66.8001 34.0086C66.5477 33.8515 66.2364 33.773 65.8662 33.773C65.4568 33.773 65.1062 33.8683 64.8145 34.059C64.5285 34.2441 64.3097 34.5021 64.1583 34.8331C64.0125 35.164 63.9395 35.5426 63.9395 35.9689H61.71C61.71 35.2453 61.8782 34.5863 62.2148 33.9917C62.5513 33.3916 63.0337 32.9121 63.6619 32.5531C64.2901 32.1942 65.0361 32.0146 65.8999 32.0146C66.7412 32.0146 67.4536 32.1548 68.0369 32.4352C68.6202 32.7101 69.0633 33.1027 69.3662 33.6131C69.6691 34.1235 69.8206 34.7322 69.8206 35.4389C69.8206 35.8316 69.756 36.2185 69.627 36.5999C69.498 36.9813 69.3157 37.3599 69.0802 37.7357C68.8502 38.1059 68.5754 38.4817 68.2556 38.8631C67.9359 39.2445 67.5798 39.6344 67.1871 40.0326L64.7977 42.6912H70.2496ZM78.6721 32.1912H83.1228C84.0539 32.1912 84.8532 32.3315 85.5206 32.6119C86.1881 32.8924 86.7013 33.3075 87.0603 33.8572C87.4193 34.4069 87.5988 35.0827 87.5988 35.8848C87.5988 36.5186 87.4866 37.0683 87.2622 37.5338C87.0379 37.9993 86.721 38.3893 86.3115 38.7034C85.9077 39.0174 85.4309 39.2642 84.8812 39.4437L84.1577 39.8139H80.2286L80.2117 37.9881H83.148C83.6248 37.9881 84.0202 37.904 84.3343 37.7357C84.6484 37.5675 84.884 37.3347 85.0411 37.0374C85.2037 36.7401 85.2851 36.4009 85.2851 36.0195C85.2851 35.61 85.2065 35.2567 85.0495 34.9594C84.8924 34.6565 84.654 34.4237 84.3343 34.2611C84.0146 34.0984 83.6108 34.017 83.1228 34.017H80.9858V44.4412H78.6721V32.1912ZM85.5879 44.4412L82.7526 38.9557L85.2009 38.9473L88.0699 44.3236V44.4412H85.5879ZM98.8941 42.624V44.4412H92.3821V42.624H98.8941ZM93.0888 32.1912V44.4412H90.7751V32.1912H93.0888ZM98.0444 37.2477V39.023H92.3821V37.2477H98.0444ZM98.8689 32.1912V34.017H92.3821V32.1912H98.8689ZM105.958 42.0434L109.012 32.1912H111.578L107.253 44.4412H105.545L105.958 42.0434ZM103.139 32.1912L106.176 42.0434L106.614 44.4412H104.889L100.581 32.1912H103.139ZM116.454 32.1912V44.4412H114.14V32.1912H116.454ZM128.22 42.624V44.4412H121.708V42.624H128.22ZM122.415 32.1912V44.4412H120.101V32.1912H122.415ZM127.37 37.2477V39.023H121.708V37.2477H127.37ZM128.195 32.1912V34.017H121.708V32.1912H128.195ZM133.988 42.0939L136.428 32.1912H137.749L137.833 34.2779L135.225 44.4412H133.828L133.988 42.0939ZM132.448 32.1912L134.451 42.0602V44.4412H132.928L130.151 32.1912H132.448ZM140.365 42.0182L142.334 32.1912H144.639L141.863 44.4412H140.34L140.365 42.0182ZM138.38 32.1912L140.82 42.1275L140.963 44.4412H139.566L136.966 34.2695L137.067 32.1912H138.38ZM153.663 41.2611C153.663 41.0255 153.627 40.8151 153.554 40.6301C153.486 40.4393 153.36 40.2682 153.175 40.1167C152.995 39.9597 152.74 39.8082 152.409 39.6624C152.084 39.511 151.663 39.354 151.147 39.1912C150.575 39.0118 150.042 38.8098 149.549 38.5855C149.055 38.3611 148.62 38.1004 148.245 37.8031C147.875 37.5059 147.586 37.1636 147.378 36.7766C147.171 36.384 147.067 35.9297 147.067 35.4137C147.067 34.9089 147.173 34.4489 147.387 34.0338C147.605 33.6187 147.914 33.2627 148.312 32.9654C148.71 32.6625 149.179 32.4296 149.717 32.267C150.261 32.1043 150.861 32.023 151.518 32.023C152.426 32.023 153.211 32.1885 153.873 32.5195C154.541 32.8504 155.057 33.2991 155.421 33.8656C155.786 34.4321 155.968 35.0687 155.968 35.7754H153.663C153.663 35.394 153.582 35.0575 153.419 34.7659C153.262 34.4742 153.021 34.2442 152.695 34.076C152.376 33.9077 151.972 33.8236 151.484 33.8236C151.013 33.8236 150.62 33.8936 150.306 34.0338C149.997 34.174 149.765 34.3647 149.608 34.6059C149.456 34.8471 149.381 35.1164 149.381 35.4137C149.381 35.6381 149.434 35.84 149.54 36.0195C149.647 36.1934 149.807 36.3587 150.02 36.5159C150.233 36.6673 150.497 36.8103 150.811 36.945C151.131 37.074 151.501 37.203 151.921 37.332C152.594 37.5339 153.183 37.7583 153.688 38.0051C154.199 38.2518 154.622 38.5322 154.959 38.8463C155.301 39.1604 155.556 39.5138 155.724 39.9064C155.898 40.299 155.985 40.7449 155.985 41.2441C155.985 41.7714 155.881 42.2425 155.674 42.6576C155.466 43.0728 155.169 43.4261 154.782 43.7178C154.395 44.0095 153.929 44.231 153.385 44.3825C152.847 44.5338 152.244 44.6096 151.576 44.6096C150.982 44.6096 150.393 44.5311 149.81 44.374C149.232 44.2114 148.707 43.9701 148.236 43.6504C147.765 43.3251 147.389 42.9157 147.109 42.4221C146.828 41.9229 146.688 41.3396 146.688 40.6721H149.01C149.01 41.0591 149.072 41.39 149.195 41.6648C149.324 41.934 149.504 42.1556 149.734 42.3295C149.969 42.4977 150.244 42.6211 150.558 42.6997C150.872 42.7782 151.212 42.8176 151.576 42.8176C152.048 42.8176 152.435 42.753 152.737 42.624C153.046 42.4894 153.276 42.3042 153.427 42.0687C153.584 41.8331 153.663 41.5639 153.663 41.2611Z" fill="black"/>
<path d="M59.659 0L62.5455 6.93996L70.0378 7.54061L64.3295 12.4304L66.0734 19.7416L59.659 15.8237L53.2446 19.7416L54.9886 12.4304L49.2803 7.54061L56.7725 6.93996L59.659 0Z" fill="#FF3D2E"/>
<path d="M81.4793 0L84.3658 6.93996L91.8581 7.54061L86.1498 12.4304L87.8937 19.7416L81.4793 15.8237L75.0649 19.7416L76.8089 12.4304L71.1006 7.54061L78.5928 6.93996L81.4793 0Z" fill="#FF3D2E"/>
<path d="M103.296 0L106.182 6.93996L113.674 7.54061L107.966 12.4304L109.71 19.7416L103.296 15.8237L96.8813 19.7416L98.6253 12.4304L92.917 7.54061L100.409 6.93996L103.296 0Z" fill="#FF3D2E"/>
<path d="M125.116 0L128.002 6.93996L135.495 7.54061L129.786 12.4304L131.53 19.7416L125.116 15.8237L118.702 19.7416L120.446 12.4304L114.737 7.54061L122.229 6.93996L125.116 0Z" fill="#FF3D2E"/>
<path d="M146.936 0L149.823 6.93996L157.315 7.54061L151.607 12.4304L153.351 19.7416L146.936 15.8237L140.522 19.7416L142.266 12.4304L136.558 7.54061L144.05 6.93996L146.936 0Z" fill="#FF3D2E"/>
<path d="M266.549 37.332H267.803C268.246 37.332 268.61 37.2562 268.897 37.1047C269.188 36.9477 269.404 36.7346 269.544 36.4654C269.69 36.1905 269.763 35.8735 269.763 35.5146C269.763 35.1612 269.699 34.8555 269.57 34.5975C269.441 34.3339 269.244 34.132 268.981 33.9917C268.723 33.8459 268.392 33.773 267.988 33.773C267.663 33.773 267.362 33.8375 267.088 33.9665C266.818 34.0955 266.602 34.2807 266.44 34.5219C266.283 34.7575 266.204 35.0406 266.204 35.3715H263.975C263.975 34.7097 264.149 34.1291 264.496 33.6299C264.85 33.1251 265.326 32.7297 265.927 32.4437C266.527 32.1576 267.197 32.0146 267.937 32.0146C268.745 32.0146 269.452 32.1492 270.058 32.4184C270.669 32.682 271.143 33.0719 271.479 33.5879C271.822 34.1039 271.993 34.7433 271.993 35.5062C271.993 35.8707 271.906 36.2353 271.732 36.5999C271.564 36.9589 271.314 37.2843 270.983 37.576C270.658 37.862 270.257 38.0947 269.78 38.2743C269.309 38.4482 268.768 38.535 268.156 38.535H266.549V37.332ZM266.549 39.0482V37.8619H268.156C268.846 37.8619 269.443 37.9433 269.948 38.1059C270.459 38.263 270.879 38.4873 271.21 38.779C271.541 39.065 271.785 39.3989 271.942 39.7803C272.105 40.1617 272.186 40.5711 272.186 41.0086C272.186 41.5807 272.08 42.0911 271.866 42.5398C271.653 42.9829 271.353 43.3587 270.966 43.6672C270.585 43.9757 270.136 44.2114 269.62 44.374C269.104 44.5311 268.546 44.6096 267.946 44.6096C267.424 44.6096 266.917 44.5394 266.423 44.3993C265.935 44.2534 265.495 44.0375 265.102 43.7514C264.709 43.4598 264.398 43.0951 264.168 42.6576C263.938 42.2146 263.823 41.7014 263.823 41.118H266.053C266.053 41.4546 266.134 41.7546 266.297 42.0182C266.465 42.2818 266.695 42.4894 266.987 42.6409C267.284 42.7866 267.618 42.8596 267.988 42.8596C268.397 42.8596 268.748 42.7866 269.04 42.6409C269.337 42.4894 269.564 42.2763 269.721 42.0014C269.878 41.721 269.957 41.3872 269.957 41.0001C269.957 40.5402 269.87 40.1672 269.696 39.8812C269.522 39.5951 269.272 39.3848 268.947 39.2501C268.627 39.1155 268.246 39.0482 267.803 39.0482H266.549ZM283.406 42.6912V44.4412H275.11V42.9437L279.09 38.6445C279.505 38.1733 279.833 37.7638 280.074 37.416C280.315 37.0683 280.486 36.7542 280.587 36.4738C280.694 36.1877 280.747 35.9156 280.747 35.6576C280.747 35.2818 280.68 34.9537 280.545 34.6732C280.411 34.3872 280.214 34.1656 279.956 34.0086C279.704 33.8515 279.393 33.773 279.022 33.773C278.613 33.773 278.262 33.8683 277.971 34.059C277.685 34.2441 277.466 34.5021 277.314 34.8331C277.169 35.164 277.096 35.5426 277.096 35.9689H274.866C274.866 35.2453 275.034 34.5863 275.371 33.9917C275.708 33.3916 276.19 32.9121 276.818 32.5531C277.446 32.1942 278.192 32.0146 279.056 32.0146C279.897 32.0146 280.61 32.1548 281.193 32.4352C281.776 32.7101 282.22 33.1027 282.522 33.6131C282.825 34.1235 282.977 34.7322 282.977 35.4389C282.977 35.8316 282.912 36.2185 282.783 36.5999C282.654 36.9813 282.472 37.3599 282.236 37.7357C282.006 38.1059 281.732 38.4817 281.412 38.8631C281.092 39.2445 280.736 39.6344 280.343 40.0326L277.954 42.6912H283.406ZM291.828 32.1912H296.279C297.21 32.1912 298.009 32.3315 298.677 32.6119C299.344 32.8924 299.858 33.3075 300.216 33.8572C300.575 34.4069 300.755 35.0827 300.755 35.8848C300.755 36.5186 300.643 37.0683 300.418 37.5338C300.194 37.9993 299.877 38.3893 299.468 38.7034C299.064 39.0174 298.587 39.2642 298.037 39.4437L297.314 39.8139H293.385L293.368 37.9881H296.304C296.781 37.9881 297.176 37.904 297.491 37.7357C297.805 37.5675 298.04 37.3347 298.197 37.0374C298.36 36.7401 298.441 36.4009 298.441 36.0195C298.441 35.61 298.363 35.2567 298.206 34.9594C298.049 34.6565 297.81 34.4237 297.491 34.2611C297.171 34.0984 296.767 34.017 296.279 34.017H294.142V44.4412H291.828V32.1912ZM298.744 44.4412L295.909 38.9557L298.357 38.9473L301.226 44.3236V44.4412H298.744ZM312.05 42.624V44.4412H305.538V42.624H312.05ZM306.245 32.1912V44.4412H303.931V32.1912H306.245ZM311.201 37.2477V39.023H305.538V37.2477H311.201ZM312.025 32.1912V34.017H305.538V32.1912H312.025ZM319.114 42.0434L322.168 32.1912H324.734L320.409 44.4412H318.701L319.114 42.0434ZM316.295 32.1912L319.333 42.0434L319.77 44.4412H318.045L313.738 32.1912H316.295ZM329.61 32.1912V44.4412H327.296V32.1912H329.61ZM341.376 42.624V44.4412H334.864V42.624H341.376ZM335.571 32.1912V44.4412H333.257V32.1912H335.571ZM340.527 37.2477V39.023H334.864V37.2477H340.527ZM341.351 32.1912V34.017H334.864V32.1912H341.351ZM347.144 42.0939L349.584 32.1912H350.905L350.989 34.2779L348.381 44.4412H346.984L347.144 42.0939ZM345.604 32.1912L347.607 42.0602V44.4412H346.084L343.308 32.1912H345.604ZM353.521 42.0182L355.49 32.1912H357.795L355.019 44.4412H353.496L353.521 42.0182ZM351.536 32.1912L353.976 42.1275L354.119 44.4412H352.722L350.122 34.2695L350.223 32.1912H351.536ZM366.819 41.2611C366.819 41.0255 366.783 40.8151 366.71 40.6301C366.643 40.4393 366.516 40.2682 366.331 40.1167C366.152 39.9597 365.897 39.8082 365.566 39.6624C365.24 39.511 364.82 39.354 364.304 39.1912C363.731 39.0118 363.199 38.8098 362.705 38.5855C362.211 38.3611 361.777 38.1004 361.401 37.8031C361.031 37.5059 360.742 37.1636 360.534 36.7766C360.327 36.384 360.223 35.9297 360.223 35.4137C360.223 34.9089 360.33 34.4489 360.543 34.0338C360.762 33.6187 361.07 33.2627 361.468 32.9654C361.866 32.6625 362.335 32.4296 362.873 32.267C363.417 32.1043 364.018 32.023 364.674 32.023C365.582 32.023 366.368 32.1885 367.03 32.5195C367.697 32.8504 368.213 33.2991 368.578 33.8656C368.942 34.4321 369.125 35.0687 369.125 35.7754H366.819C366.819 35.394 366.738 35.0575 366.575 34.7659C366.418 34.4742 366.177 34.2442 365.852 34.076C365.532 33.9077 365.128 33.8236 364.64 33.8236C364.169 33.8236 363.776 33.8936 363.462 34.0338C363.154 34.174 362.921 34.3647 362.764 34.6059C362.612 34.8471 362.537 35.1164 362.537 35.4137C362.537 35.6381 362.59 35.84 362.697 36.0195C362.803 36.1934 362.963 36.3587 363.176 36.5159C363.389 36.6673 363.653 36.8103 363.967 36.945C364.287 37.074 364.657 37.203 365.078 37.332C365.751 37.5339 366.34 37.7583 366.844 38.0051C367.355 38.2518 367.778 38.5322 368.115 38.8463C368.457 39.1604 368.712 39.5138 368.881 39.9064C369.054 40.299 369.141 40.7449 369.141 41.2441C369.141 41.7714 369.038 42.2425 368.83 42.6576C368.623 43.0728 368.325 43.4261 367.938 43.7178C367.551 44.0095 367.086 44.231 366.542 44.3825C366.003 44.5338 365.4 44.6096 364.733 44.6096C364.138 44.6096 363.549 44.5311 362.966 44.374C362.388 44.2114 361.864 43.9701 361.393 43.6504C360.921 43.3251 360.546 42.9157 360.265 42.4221C359.985 41.9229 359.844 41.3396 359.844 40.6721H362.167C362.167 41.0591 362.228 41.39 362.352 41.6648C362.481 41.934 362.66 42.1556 362.89 42.3295C363.126 42.4977 363.401 42.6211 363.715 42.6997C364.029 42.7782 364.368 42.8176 364.733 42.8176C365.204 42.8176 365.591 42.753 365.894 42.624C366.202 42.4894 366.432 42.3042 366.584 42.0687C366.741 41.8331 366.819 41.5639 366.819 41.2611Z" fill="black"/>
<path d="M272.811 0L275.698 6.93996L283.19 7.54061L277.482 12.4304L279.226 19.7416L272.811 15.8237L266.397 19.7416L268.141 12.4304L262.433 7.54061L269.925 6.93996L272.811 0Z" fill="#4D88E6"/>
<path d="M294.632 0L297.518 6.93996L305.01 7.54061L299.302 12.4304L301.046 19.7416L294.632 15.8237L288.217 19.7416L289.961 12.4304L284.253 7.54061L291.745 6.93996L294.632 0Z" fill="#4D88E6"/>
<path d="M316.452 0L319.338 6.93996L326.831 7.54061L321.122 12.4304L322.866 19.7416L316.452 15.8237L310.037 19.7416L311.781 12.4304L306.073 7.54061L313.565 6.93996L316.452 0Z" fill="#4D88E6"/>
<path d="M338.272 0L341.159 6.93996L348.651 7.54061L342.943 12.4304L344.687 19.7416L338.272 15.8237L331.858 19.7416L333.602 12.4304L327.893 7.54061L335.386 6.93996L338.272 0Z" fill="#4D88E6"/>
<path d="M360.085 0L362.971 6.93996L370.463 7.54061L364.755 12.4304L366.499 19.7416L360.085 15.8237L353.67 19.7416L355.414 12.4304L349.706 7.54061L357.198 6.93996L360.085 0Z" fill="#4D88E6"/>
<path d="M226.371 17.7654C226.371 17.7654 223.882 17.5268 223.882 19.6265V29.0273H240.214V31.8428C240.223 32.0308 240.189 32.2183 240.116 32.393C240.044 32.5677 239.933 32.7257 239.792 32.8564C239.651 32.9872 239.482 33.0878 239.298 33.1516C239.113 33.2154 238.916 33.241 238.72 33.2267H223.882V45.443H241.708C241.708 45.443 252.514 43.8683 252.613 33.2267V17.7654H226.371ZM252.115 2.78125H219.948C208.296 5.40586 208.047 14.5682 208.047 14.5682V45.4907H220.396V17.3359C220.396 14.9499 222.886 14.5204 222.886 14.5204H252.066L252.115 2.78125Z" fill="#4385F6"/>
</svg>
